<mxfile host="app.diagrams.net" modified="2024-04-21T05:18:28.373Z" agent="Mozilla/5.0 (Windows NT 10.0; Win64; x64) AppleWebKit/537.36 (KHTML, like Gecko) Chrome/123.0.0.0 Safari/537.36" etag="iohRO6rW5UcdFO7M0G_a" version="24.2.5" type="github">
  <diagram name="第 1 页" id="xF60ij_P-e9r_lj5GOx3">
    <mxGraphModel dx="1062" dy="660" grid="1" gridSize="10" guides="1" tooltips="1" connect="1" arrows="1" fold="1" page="1" pageScale="1" pageWidth="827" pageHeight="1169" math="0" shadow="0">
      <root>
        <mxCell id="0" />
        <mxCell id="1" parent="0" />
        <mxCell id="w1lFqmkW3NNwkeodb7ew-1" value="unused" style="whiteSpace=wrap;html=1;aspect=fixed;fillColor=#094E82;strokeColor=#001DBC;fontColor=#ffffff;" parent="1" vertex="1">
          <mxGeometry x="20" y="200" width="50" height="50" as="geometry" />
        </mxCell>
        <mxCell id="w1lFqmkW3NNwkeodb7ew-2" value="header" style="whiteSpace=wrap;html=1;aspect=fixed;fillColor=#cce5ff;strokeColor=#36393d;" parent="1" vertex="1">
          <mxGeometry x="70" y="200" width="50" height="50" as="geometry" />
        </mxCell>
        <mxCell id="w1lFqmkW3NNwkeodb7ew-3" value="sfblock&lt;div&gt;*pre&lt;/div&gt;" style="whiteSpace=wrap;html=1;aspect=fixed;fillColor=#cce5ff;strokeColor=#36393d;" parent="1" vertex="1">
          <mxGeometry x="120" y="200" width="50" height="50" as="geometry" />
        </mxCell>
        <mxCell id="w1lFqmkW3NNwkeodb7ew-4" value="sfblock&lt;div&gt;*next&lt;/div&gt;" style="whiteSpace=wrap;html=1;aspect=fixed;fillColor=#cce5ff;strokeColor=#36393d;" parent="1" vertex="1">
          <mxGeometry x="170" y="200" width="50" height="50" as="geometry" />
        </mxCell>
        <mxCell id="w1lFqmkW3NNwkeodb7ew-5" value="footer" style="whiteSpace=wrap;html=1;aspect=fixed;fillColor=#cce5ff;strokeColor=#36393d;" parent="1" vertex="1">
          <mxGeometry x="220" y="200" width="50" height="50" as="geometry" />
        </mxCell>
        <mxCell id="w1lFqmkW3NNwkeodb7ew-7" value="header" style="whiteSpace=wrap;html=1;aspect=fixed;" parent="1" vertex="1">
          <mxGeometry x="270" y="200" width="50" height="50" as="geometry" />
        </mxCell>
        <mxCell id="w1lFqmkW3NNwkeodb7ew-8" value="" style="whiteSpace=wrap;html=1;aspect=fixed;" parent="1" vertex="1">
          <mxGeometry x="320" y="200" width="50" height="50" as="geometry" />
        </mxCell>
        <mxCell id="w1lFqmkW3NNwkeodb7ew-9" value="" style="whiteSpace=wrap;html=1;aspect=fixed;" parent="1" vertex="1">
          <mxGeometry x="370" y="200" width="50" height="50" as="geometry" />
        </mxCell>
        <mxCell id="w1lFqmkW3NNwkeodb7ew-10" value="" style="whiteSpace=wrap;html=1;aspect=fixed;" parent="1" vertex="1">
          <mxGeometry x="420" y="200" width="50" height="50" as="geometry" />
        </mxCell>
        <mxCell id="w1lFqmkW3NNwkeodb7ew-11" value="" style="whiteSpace=wrap;html=1;aspect=fixed;" parent="1" vertex="1">
          <mxGeometry x="470" y="200" width="50" height="50" as="geometry" />
        </mxCell>
        <mxCell id="w1lFqmkW3NNwkeodb7ew-12" value="" style="whiteSpace=wrap;html=1;aspect=fixed;" parent="1" vertex="1">
          <mxGeometry x="520" y="200" width="50" height="50" as="geometry" />
        </mxCell>
        <mxCell id="w1lFqmkW3NNwkeodb7ew-13" value="" style="whiteSpace=wrap;html=1;aspect=fixed;" parent="1" vertex="1">
          <mxGeometry x="570" y="200" width="50" height="50" as="geometry" />
        </mxCell>
        <mxCell id="w1lFqmkW3NNwkeodb7ew-14" value="" style="whiteSpace=wrap;html=1;aspect=fixed;" parent="1" vertex="1">
          <mxGeometry x="620" y="200" width="50" height="50" as="geometry" />
        </mxCell>
        <mxCell id="w1lFqmkW3NNwkeodb7ew-15" value="" style="whiteSpace=wrap;html=1;aspect=fixed;" parent="1" vertex="1">
          <mxGeometry x="670" y="200" width="50" height="50" as="geometry" />
        </mxCell>
        <mxCell id="w1lFqmkW3NNwkeodb7ew-16" value="" style="whiteSpace=wrap;html=1;aspect=fixed;" parent="1" vertex="1">
          <mxGeometry x="720" y="200" width="50" height="50" as="geometry" />
        </mxCell>
        <mxCell id="w1lFqmkW3NNwkeodb7ew-17" value="" style="whiteSpace=wrap;html=1;aspect=fixed;" parent="1" vertex="1">
          <mxGeometry x="770" y="200" width="50" height="50" as="geometry" />
        </mxCell>
        <mxCell id="w1lFqmkW3NNwkeodb7ew-18" value="" style="whiteSpace=wrap;html=1;aspect=fixed;" parent="1" vertex="1">
          <mxGeometry x="820" y="200" width="50" height="50" as="geometry" />
        </mxCell>
        <mxCell id="w1lFqmkW3NNwkeodb7ew-19" value="" style="whiteSpace=wrap;html=1;aspect=fixed;" parent="1" vertex="1">
          <mxGeometry x="870" y="200" width="50" height="50" as="geometry" />
        </mxCell>
        <mxCell id="w1lFqmkW3NNwkeodb7ew-20" value="" style="whiteSpace=wrap;html=1;aspect=fixed;" parent="1" vertex="1">
          <mxGeometry x="920" y="200" width="50" height="50" as="geometry" />
        </mxCell>
        <mxCell id="w1lFqmkW3NNwkeodb7ew-21" value="" style="whiteSpace=wrap;html=1;aspect=fixed;" parent="1" vertex="1">
          <mxGeometry x="970" y="200" width="50" height="50" as="geometry" />
        </mxCell>
        <mxCell id="w1lFqmkW3NNwkeodb7ew-22" value="" style="strokeWidth=2;html=1;shape=mxgraph.flowchart.annotation_2;align=left;labelPosition=right;pointerEvents=1;rotation=-90;" parent="1" vertex="1">
          <mxGeometry x="145" y="185" width="50" height="190" as="geometry" />
        </mxCell>
        <mxCell id="w1lFqmkW3NNwkeodb7ew-23" value="prelogue" style="text;html=1;align=center;verticalAlign=middle;resizable=0;points=[];autosize=1;strokeColor=none;fillColor=none;" parent="1" vertex="1">
          <mxGeometry x="135" y="308" width="70" height="30" as="geometry" />
        </mxCell>
        <mxCell id="w1lFqmkW3NNwkeodb7ew-24" value="" style="whiteSpace=wrap;html=1;aspect=fixed;" parent="1" vertex="1">
          <mxGeometry x="1020" y="200" width="50" height="50" as="geometry" />
        </mxCell>
        <mxCell id="w1lFqmkW3NNwkeodb7ew-25" value="" style="whiteSpace=wrap;html=1;aspect=fixed;" parent="1" vertex="1">
          <mxGeometry x="1070" y="200" width="50" height="50" as="geometry" />
        </mxCell>
        <mxCell id="w1lFqmkW3NNwkeodb7ew-26" value="" style="whiteSpace=wrap;html=1;aspect=fixed;" parent="1" vertex="1">
          <mxGeometry x="1120" y="200" width="50" height="50" as="geometry" />
        </mxCell>
        <mxCell id="w1lFqmkW3NNwkeodb7ew-27" value="" style="whiteSpace=wrap;html=1;aspect=fixed;" parent="1" vertex="1">
          <mxGeometry x="1170" y="200" width="50" height="50" as="geometry" />
        </mxCell>
        <mxCell id="w1lFqmkW3NNwkeodb7ew-28" value="" style="whiteSpace=wrap;html=1;aspect=fixed;" parent="1" vertex="1">
          <mxGeometry x="1220" y="200" width="50" height="50" as="geometry" />
        </mxCell>
        <mxCell id="w1lFqmkW3NNwkeodb7ew-29" value="" style="whiteSpace=wrap;html=1;aspect=fixed;" parent="1" vertex="1">
          <mxGeometry x="1270" y="200" width="50" height="50" as="geometry" />
        </mxCell>
        <mxCell id="w1lFqmkW3NNwkeodb7ew-30" value="footer" style="whiteSpace=wrap;html=1;aspect=fixed;" parent="1" vertex="1">
          <mxGeometry x="1470" y="200" width="50" height="50" as="geometry" />
        </mxCell>
        <mxCell id="w1lFqmkW3NNwkeodb7ew-31" value="header" style="whiteSpace=wrap;html=1;aspect=fixed;" parent="1" vertex="1">
          <mxGeometry x="1520" y="200" width="50" height="50" as="geometry" />
        </mxCell>
        <mxCell id="w1lFqmkW3NNwkeodb7ew-33" value="epilogue" style="text;html=1;align=center;verticalAlign=middle;resizable=0;points=[];autosize=1;strokeColor=none;fillColor=none;" parent="1" vertex="1">
          <mxGeometry x="1510" y="300" width="70" height="30" as="geometry" />
        </mxCell>
        <mxCell id="w1lFqmkW3NNwkeodb7ew-35" value="" style="shape=flexArrow;endArrow=classic;html=1;rounded=0;exitX=0.461;exitY=-0.141;exitDx=0;exitDy=0;exitPerimeter=0;" parent="1" source="w1lFqmkW3NNwkeodb7ew-33" edge="1">
          <mxGeometry width="50" height="50" relative="1" as="geometry">
            <mxPoint x="1460" y="330" as="sourcePoint" />
            <mxPoint x="1540" y="260" as="targetPoint" />
          </mxGeometry>
        </mxCell>
        <mxCell id="w1lFqmkW3NNwkeodb7ew-36" value="初始状态" style="text;html=1;align=center;verticalAlign=middle;resizable=0;points=[];autosize=1;strokeColor=none;fillColor=none;" parent="1" vertex="1">
          <mxGeometry x="10" y="155" width="70" height="30" as="geometry" />
        </mxCell>
        <mxCell id="w1lFqmkW3NNwkeodb7ew-37" value="unused" style="whiteSpace=wrap;html=1;aspect=fixed;fillColor=#094E82;strokeColor=#001DBC;fontColor=#ffffff;" parent="1" vertex="1">
          <mxGeometry x="20" y="410" width="50" height="50" as="geometry" />
        </mxCell>
        <mxCell id="w1lFqmkW3NNwkeodb7ew-38" value="header" style="whiteSpace=wrap;html=1;aspect=fixed;fillColor=#cce5ff;strokeColor=#36393d;" parent="1" vertex="1">
          <mxGeometry x="70" y="410" width="50" height="50" as="geometry" />
        </mxCell>
        <mxCell id="w1lFqmkW3NNwkeodb7ew-39" value="sfblock&lt;div&gt;*pre&lt;/div&gt;" style="whiteSpace=wrap;html=1;aspect=fixed;fillColor=#cce5ff;strokeColor=#36393d;" parent="1" vertex="1">
          <mxGeometry x="120" y="410" width="50" height="50" as="geometry" />
        </mxCell>
        <mxCell id="w1lFqmkW3NNwkeodb7ew-40" value="sfblock&lt;div&gt;*next&lt;/div&gt;" style="whiteSpace=wrap;html=1;aspect=fixed;fillColor=#cce5ff;strokeColor=#36393d;" parent="1" vertex="1">
          <mxGeometry x="170" y="410" width="50" height="50" as="geometry" />
        </mxCell>
        <mxCell id="w1lFqmkW3NNwkeodb7ew-41" value="footer" style="whiteSpace=wrap;html=1;aspect=fixed;fillColor=#cce5ff;strokeColor=#36393d;" parent="1" vertex="1">
          <mxGeometry x="220" y="410" width="50" height="50" as="geometry" />
        </mxCell>
        <mxCell id="w1lFqmkW3NNwkeodb7ew-42" value="header" style="whiteSpace=wrap;html=1;aspect=fixed;fillColor=#cdeb8b;strokeColor=#36393d;" parent="1" vertex="1">
          <mxGeometry x="270" y="410" width="50" height="50" as="geometry" />
        </mxCell>
        <mxCell id="w1lFqmkW3NNwkeodb7ew-43" value="" style="whiteSpace=wrap;html=1;aspect=fixed;fillColor=#cdeb8b;strokeColor=#36393d;" parent="1" vertex="1">
          <mxGeometry x="320" y="410" width="50" height="50" as="geometry" />
        </mxCell>
        <mxCell id="w1lFqmkW3NNwkeodb7ew-44" value="" style="whiteSpace=wrap;html=1;aspect=fixed;fillColor=#cdeb8b;strokeColor=#36393d;" parent="1" vertex="1">
          <mxGeometry x="370" y="410" width="50" height="50" as="geometry" />
        </mxCell>
        <mxCell id="w1lFqmkW3NNwkeodb7ew-45" value="" style="whiteSpace=wrap;html=1;aspect=fixed;fillColor=#cdeb8b;strokeColor=#36393d;" parent="1" vertex="1">
          <mxGeometry x="420" y="410" width="50" height="50" as="geometry" />
        </mxCell>
        <mxCell id="w1lFqmkW3NNwkeodb7ew-46" value="" style="whiteSpace=wrap;html=1;aspect=fixed;fillColor=#cdeb8b;strokeColor=#36393d;" parent="1" vertex="1">
          <mxGeometry x="470" y="410" width="50" height="50" as="geometry" />
        </mxCell>
        <mxCell id="w1lFqmkW3NNwkeodb7ew-47" value="footer" style="whiteSpace=wrap;html=1;aspect=fixed;fillColor=#cdeb8b;strokeColor=#36393d;" parent="1" vertex="1">
          <mxGeometry x="520" y="410" width="50" height="50" as="geometry" />
        </mxCell>
        <mxCell id="w1lFqmkW3NNwkeodb7ew-48" value="header" style="whiteSpace=wrap;html=1;aspect=fixed;" parent="1" vertex="1">
          <mxGeometry x="570" y="410" width="50" height="50" as="geometry" />
        </mxCell>
        <mxCell id="w1lFqmkW3NNwkeodb7ew-49" value="" style="whiteSpace=wrap;html=1;aspect=fixed;" parent="1" vertex="1">
          <mxGeometry x="620" y="410" width="50" height="50" as="geometry" />
        </mxCell>
        <mxCell id="w1lFqmkW3NNwkeodb7ew-50" value="" style="whiteSpace=wrap;html=1;aspect=fixed;" parent="1" vertex="1">
          <mxGeometry x="670" y="410" width="50" height="50" as="geometry" />
        </mxCell>
        <mxCell id="w1lFqmkW3NNwkeodb7ew-51" value="" style="whiteSpace=wrap;html=1;aspect=fixed;" parent="1" vertex="1">
          <mxGeometry x="720" y="410" width="50" height="50" as="geometry" />
        </mxCell>
        <mxCell id="w1lFqmkW3NNwkeodb7ew-52" value="" style="whiteSpace=wrap;html=1;aspect=fixed;" parent="1" vertex="1">
          <mxGeometry x="770" y="410" width="50" height="50" as="geometry" />
        </mxCell>
        <mxCell id="w1lFqmkW3NNwkeodb7ew-53" value="" style="whiteSpace=wrap;html=1;aspect=fixed;" parent="1" vertex="1">
          <mxGeometry x="820" y="410" width="50" height="50" as="geometry" />
        </mxCell>
        <mxCell id="w1lFqmkW3NNwkeodb7ew-54" value="" style="whiteSpace=wrap;html=1;aspect=fixed;" parent="1" vertex="1">
          <mxGeometry x="870" y="410" width="50" height="50" as="geometry" />
        </mxCell>
        <mxCell id="w1lFqmkW3NNwkeodb7ew-55" value="" style="whiteSpace=wrap;html=1;aspect=fixed;" parent="1" vertex="1">
          <mxGeometry x="920" y="410" width="50" height="50" as="geometry" />
        </mxCell>
        <mxCell id="w1lFqmkW3NNwkeodb7ew-56" value="" style="whiteSpace=wrap;html=1;aspect=fixed;" parent="1" vertex="1">
          <mxGeometry x="970" y="410" width="50" height="50" as="geometry" />
        </mxCell>
        <mxCell id="w1lFqmkW3NNwkeodb7ew-57" value="" style="strokeWidth=2;html=1;shape=mxgraph.flowchart.annotation_2;align=left;labelPosition=right;pointerEvents=1;rotation=-90;" parent="1" vertex="1">
          <mxGeometry x="145" y="395" width="50" height="190" as="geometry" />
        </mxCell>
        <mxCell id="w1lFqmkW3NNwkeodb7ew-58" value="" style="whiteSpace=wrap;html=1;aspect=fixed;" parent="1" vertex="1">
          <mxGeometry x="1020" y="410" width="50" height="50" as="geometry" />
        </mxCell>
        <mxCell id="w1lFqmkW3NNwkeodb7ew-59" value="" style="whiteSpace=wrap;html=1;aspect=fixed;" parent="1" vertex="1">
          <mxGeometry x="1070" y="410" width="50" height="50" as="geometry" />
        </mxCell>
        <mxCell id="w1lFqmkW3NNwkeodb7ew-60" value="" style="whiteSpace=wrap;html=1;aspect=fixed;" parent="1" vertex="1">
          <mxGeometry x="1120" y="410" width="50" height="50" as="geometry" />
        </mxCell>
        <mxCell id="w1lFqmkW3NNwkeodb7ew-61" value="" style="whiteSpace=wrap;html=1;aspect=fixed;" parent="1" vertex="1">
          <mxGeometry x="1170" y="410" width="50" height="50" as="geometry" />
        </mxCell>
        <mxCell id="w1lFqmkW3NNwkeodb7ew-62" value="" style="whiteSpace=wrap;html=1;aspect=fixed;" parent="1" vertex="1">
          <mxGeometry x="1220" y="410" width="50" height="50" as="geometry" />
        </mxCell>
        <mxCell id="w1lFqmkW3NNwkeodb7ew-63" value="" style="whiteSpace=wrap;html=1;aspect=fixed;" parent="1" vertex="1">
          <mxGeometry x="1270" y="410" width="50" height="50" as="geometry" />
        </mxCell>
        <mxCell id="w1lFqmkW3NNwkeodb7ew-64" value="footer" style="whiteSpace=wrap;html=1;aspect=fixed;" parent="1" vertex="1">
          <mxGeometry x="1470" y="410" width="50" height="50" as="geometry" />
        </mxCell>
        <mxCell id="w1lFqmkW3NNwkeodb7ew-65" value="header" style="whiteSpace=wrap;html=1;aspect=fixed;" parent="1" vertex="1">
          <mxGeometry x="1520" y="410" width="50" height="50" as="geometry" />
        </mxCell>
        <mxCell id="w1lFqmkW3NNwkeodb7ew-66" value="" style="shape=flexArrow;endArrow=classic;html=1;rounded=0;exitX=0.461;exitY=-0.141;exitDx=0;exitDy=0;exitPerimeter=0;" parent="1" edge="1">
          <mxGeometry width="50" height="50" relative="1" as="geometry">
            <mxPoint x="1542" y="506" as="sourcePoint" />
            <mxPoint x="1540" y="470" as="targetPoint" />
          </mxGeometry>
        </mxCell>
        <mxCell id="w1lFqmkW3NNwkeodb7ew-67" value="&lt;b&gt;分配24个字节；p1=malloc(24)&lt;/b&gt;" style="text;html=1;align=center;verticalAlign=middle;resizable=0;points=[];autosize=1;strokeColor=none;fillColor=none;" parent="1" vertex="1">
          <mxGeometry x="10" y="365" width="190" height="30" as="geometry" />
        </mxCell>
        <mxCell id="w1lFqmkW3NNwkeodb7ew-68" value="每个块8个字节（一个字）" style="text;html=1;align=center;verticalAlign=middle;whiteSpace=wrap;rounded=0;" parent="1" vertex="1">
          <mxGeometry x="320" y="140" width="170" height="30" as="geometry" />
        </mxCell>
        <mxCell id="w1lFqmkW3NNwkeodb7ew-69" value="" style="endArrow=none;html=1;rounded=0;exitX=1;exitY=1;exitDx=0;exitDy=0;entryX=1;entryY=0;entryDx=0;entryDy=0;" parent="1" source="w1lFqmkW3NNwkeodb7ew-45" target="w1lFqmkW3NNwkeodb7ew-46" edge="1">
          <mxGeometry width="50" height="50" relative="1" as="geometry">
            <mxPoint x="430" y="466" as="sourcePoint" />
            <mxPoint x="480" y="416" as="targetPoint" />
          </mxGeometry>
        </mxCell>
        <mxCell id="w1lFqmkW3NNwkeodb7ew-70" value="" style="shape=flexArrow;endArrow=classic;html=1;rounded=0;" parent="1" edge="1">
          <mxGeometry width="50" height="50" relative="1" as="geometry">
            <mxPoint x="494.62" y="526" as="sourcePoint" />
            <mxPoint x="494.62" y="465" as="targetPoint" />
          </mxGeometry>
        </mxCell>
        <mxCell id="w1lFqmkW3NNwkeodb7ew-71" value="填充字节" style="text;html=1;align=center;verticalAlign=middle;resizable=0;points=[];autosize=1;strokeColor=none;fillColor=none;" parent="1" vertex="1">
          <mxGeometry x="460" y="526" width="70" height="30" as="geometry" />
        </mxCell>
        <mxCell id="w1lFqmkW3NNwkeodb7ew-72" value="&lt;b&gt;再分配48个字节;p2=malloc(48)&lt;/b&gt;" style="text;html=1;align=center;verticalAlign=middle;resizable=0;points=[];autosize=1;strokeColor=none;fillColor=none;" parent="1" vertex="1">
          <mxGeometry x="10" y="601" width="190" height="30" as="geometry" />
        </mxCell>
        <mxCell id="w1lFqmkW3NNwkeodb7ew-73" value="unused" style="whiteSpace=wrap;html=1;aspect=fixed;fillColor=#094E82;strokeColor=#001DBC;fontColor=#ffffff;" parent="1" vertex="1">
          <mxGeometry x="20" y="646" width="50" height="50" as="geometry" />
        </mxCell>
        <mxCell id="w1lFqmkW3NNwkeodb7ew-74" value="header" style="whiteSpace=wrap;html=1;aspect=fixed;fillColor=#cce5ff;strokeColor=#36393d;" parent="1" vertex="1">
          <mxGeometry x="70" y="646" width="50" height="50" as="geometry" />
        </mxCell>
        <mxCell id="w1lFqmkW3NNwkeodb7ew-75" value="sfblock&lt;div&gt;*pre&lt;/div&gt;" style="whiteSpace=wrap;html=1;aspect=fixed;fillColor=#cce5ff;strokeColor=#36393d;" parent="1" vertex="1">
          <mxGeometry x="120" y="646" width="50" height="50" as="geometry" />
        </mxCell>
        <mxCell id="w1lFqmkW3NNwkeodb7ew-76" value="sfblock&lt;div&gt;*next&lt;/div&gt;" style="whiteSpace=wrap;html=1;aspect=fixed;fillColor=#cce5ff;strokeColor=#36393d;" parent="1" vertex="1">
          <mxGeometry x="170" y="646" width="50" height="50" as="geometry" />
        </mxCell>
        <mxCell id="w1lFqmkW3NNwkeodb7ew-77" value="footer" style="whiteSpace=wrap;html=1;aspect=fixed;fillColor=#cce5ff;strokeColor=#36393d;" parent="1" vertex="1">
          <mxGeometry x="220" y="646" width="50" height="50" as="geometry" />
        </mxCell>
        <mxCell id="w1lFqmkW3NNwkeodb7ew-78" value="header" style="whiteSpace=wrap;html=1;aspect=fixed;fillColor=#cdeb8b;strokeColor=#36393d;" parent="1" vertex="1">
          <mxGeometry x="270" y="646" width="50" height="50" as="geometry" />
        </mxCell>
        <mxCell id="w1lFqmkW3NNwkeodb7ew-79" value="" style="whiteSpace=wrap;html=1;aspect=fixed;fillColor=#cdeb8b;strokeColor=#36393d;" parent="1" vertex="1">
          <mxGeometry x="320" y="646" width="50" height="50" as="geometry" />
        </mxCell>
        <mxCell id="w1lFqmkW3NNwkeodb7ew-80" value="" style="whiteSpace=wrap;html=1;aspect=fixed;fillColor=#cdeb8b;strokeColor=#36393d;" parent="1" vertex="1">
          <mxGeometry x="370" y="646" width="50" height="50" as="geometry" />
        </mxCell>
        <mxCell id="w1lFqmkW3NNwkeodb7ew-81" value="" style="whiteSpace=wrap;html=1;aspect=fixed;fillColor=#cdeb8b;strokeColor=#36393d;" parent="1" vertex="1">
          <mxGeometry x="420" y="646" width="50" height="50" as="geometry" />
        </mxCell>
        <mxCell id="w1lFqmkW3NNwkeodb7ew-82" value="" style="whiteSpace=wrap;html=1;aspect=fixed;fillColor=#cdeb8b;strokeColor=#36393d;" parent="1" vertex="1">
          <mxGeometry x="470" y="646" width="50" height="50" as="geometry" />
        </mxCell>
        <mxCell id="w1lFqmkW3NNwkeodb7ew-83" value="footer" style="whiteSpace=wrap;html=1;aspect=fixed;fillColor=#cdeb8b;strokeColor=#36393d;" parent="1" vertex="1">
          <mxGeometry x="520" y="646" width="50" height="50" as="geometry" />
        </mxCell>
        <mxCell id="w1lFqmkW3NNwkeodb7ew-84" value="header" style="whiteSpace=wrap;html=1;aspect=fixed;fillColor=#ffff88;strokeColor=#36393d;" parent="1" vertex="1">
          <mxGeometry x="570" y="646" width="50" height="50" as="geometry" />
        </mxCell>
        <mxCell id="w1lFqmkW3NNwkeodb7ew-85" value="" style="whiteSpace=wrap;html=1;aspect=fixed;fillColor=#ffff88;strokeColor=#36393d;" parent="1" vertex="1">
          <mxGeometry x="620" y="646" width="50" height="50" as="geometry" />
        </mxCell>
        <mxCell id="w1lFqmkW3NNwkeodb7ew-86" value="" style="whiteSpace=wrap;html=1;aspect=fixed;fillColor=#ffff88;strokeColor=#36393d;" parent="1" vertex="1">
          <mxGeometry x="670" y="646" width="50" height="50" as="geometry" />
        </mxCell>
        <mxCell id="w1lFqmkW3NNwkeodb7ew-87" value="" style="whiteSpace=wrap;html=1;aspect=fixed;fillColor=#ffff88;strokeColor=#36393d;" parent="1" vertex="1">
          <mxGeometry x="720" y="646" width="50" height="50" as="geometry" />
        </mxCell>
        <mxCell id="w1lFqmkW3NNwkeodb7ew-88" value="" style="whiteSpace=wrap;html=1;aspect=fixed;fillColor=#ffff88;strokeColor=#36393d;" parent="1" vertex="1">
          <mxGeometry x="770" y="646" width="50" height="50" as="geometry" />
        </mxCell>
        <mxCell id="w1lFqmkW3NNwkeodb7ew-89" value="" style="whiteSpace=wrap;html=1;aspect=fixed;fillColor=#ffff88;strokeColor=#36393d;" parent="1" vertex="1">
          <mxGeometry x="820" y="646" width="50" height="50" as="geometry" />
        </mxCell>
        <mxCell id="w1lFqmkW3NNwkeodb7ew-90" value="" style="whiteSpace=wrap;html=1;aspect=fixed;fillColor=#ffff88;strokeColor=#36393d;" parent="1" vertex="1">
          <mxGeometry x="870" y="646" width="50" height="50" as="geometry" />
        </mxCell>
        <mxCell id="w1lFqmkW3NNwkeodb7ew-91" value="footer" style="whiteSpace=wrap;html=1;aspect=fixed;fillColor=#ffff88;strokeColor=#36393d;" parent="1" vertex="1">
          <mxGeometry x="920" y="646" width="50" height="50" as="geometry" />
        </mxCell>
        <mxCell id="w1lFqmkW3NNwkeodb7ew-92" value="header" style="whiteSpace=wrap;html=1;aspect=fixed;" parent="1" vertex="1">
          <mxGeometry x="970" y="646" width="50" height="50" as="geometry" />
        </mxCell>
        <mxCell id="w1lFqmkW3NNwkeodb7ew-93" value="" style="strokeWidth=2;html=1;shape=mxgraph.flowchart.annotation_2;align=left;labelPosition=right;pointerEvents=1;rotation=-90;" parent="1" vertex="1">
          <mxGeometry x="145" y="631" width="50" height="190" as="geometry" />
        </mxCell>
        <mxCell id="w1lFqmkW3NNwkeodb7ew-94" value="" style="whiteSpace=wrap;html=1;aspect=fixed;" parent="1" vertex="1">
          <mxGeometry x="1020" y="646" width="50" height="50" as="geometry" />
        </mxCell>
        <mxCell id="w1lFqmkW3NNwkeodb7ew-95" value="" style="whiteSpace=wrap;html=1;aspect=fixed;" parent="1" vertex="1">
          <mxGeometry x="1070" y="646" width="50" height="50" as="geometry" />
        </mxCell>
        <mxCell id="w1lFqmkW3NNwkeodb7ew-96" value="" style="whiteSpace=wrap;html=1;aspect=fixed;" parent="1" vertex="1">
          <mxGeometry x="1120" y="646" width="50" height="50" as="geometry" />
        </mxCell>
        <mxCell id="w1lFqmkW3NNwkeodb7ew-97" value="" style="whiteSpace=wrap;html=1;aspect=fixed;" parent="1" vertex="1">
          <mxGeometry x="1170" y="646" width="50" height="50" as="geometry" />
        </mxCell>
        <mxCell id="w1lFqmkW3NNwkeodb7ew-98" value="" style="whiteSpace=wrap;html=1;aspect=fixed;" parent="1" vertex="1">
          <mxGeometry x="1220" y="646" width="50" height="50" as="geometry" />
        </mxCell>
        <mxCell id="w1lFqmkW3NNwkeodb7ew-99" value="" style="whiteSpace=wrap;html=1;aspect=fixed;" parent="1" vertex="1">
          <mxGeometry x="1270" y="646" width="50" height="50" as="geometry" />
        </mxCell>
        <mxCell id="w1lFqmkW3NNwkeodb7ew-100" value="footer" style="whiteSpace=wrap;html=1;aspect=fixed;" parent="1" vertex="1">
          <mxGeometry x="1470" y="646" width="50" height="50" as="geometry" />
        </mxCell>
        <mxCell id="w1lFqmkW3NNwkeodb7ew-101" value="header" style="whiteSpace=wrap;html=1;aspect=fixed;" parent="1" vertex="1">
          <mxGeometry x="1520" y="646" width="50" height="50" as="geometry" />
        </mxCell>
        <mxCell id="w1lFqmkW3NNwkeodb7ew-102" value="" style="shape=flexArrow;endArrow=classic;html=1;rounded=0;exitX=0.461;exitY=-0.141;exitDx=0;exitDy=0;exitPerimeter=0;" parent="1" edge="1">
          <mxGeometry width="50" height="50" relative="1" as="geometry">
            <mxPoint x="1542" y="742" as="sourcePoint" />
            <mxPoint x="1540" y="706" as="targetPoint" />
          </mxGeometry>
        </mxCell>
        <mxCell id="w1lFqmkW3NNwkeodb7ew-103" value="" style="endArrow=none;html=1;rounded=0;exitX=1;exitY=1;exitDx=0;exitDy=0;entryX=1;entryY=0;entryDx=0;entryDy=0;" parent="1" source="w1lFqmkW3NNwkeodb7ew-81" target="w1lFqmkW3NNwkeodb7ew-82" edge="1">
          <mxGeometry width="50" height="50" relative="1" as="geometry">
            <mxPoint x="430" y="702" as="sourcePoint" />
            <mxPoint x="480" y="652" as="targetPoint" />
          </mxGeometry>
        </mxCell>
        <mxCell id="w1lFqmkW3NNwkeodb7ew-104" value="" style="shape=flexArrow;endArrow=classic;html=1;rounded=0;" parent="1" edge="1">
          <mxGeometry width="50" height="50" relative="1" as="geometry">
            <mxPoint x="494.62" y="762" as="sourcePoint" />
            <mxPoint x="494.62" y="701" as="targetPoint" />
          </mxGeometry>
        </mxCell>
        <mxCell id="w1lFqmkW3NNwkeodb7ew-105" value="" style="whiteSpace=wrap;html=1;aspect=fixed;" parent="1" vertex="1">
          <mxGeometry x="1320" y="200" width="50" height="50" as="geometry" />
        </mxCell>
        <mxCell id="w1lFqmkW3NNwkeodb7ew-106" value="" style="whiteSpace=wrap;html=1;aspect=fixed;" parent="1" vertex="1">
          <mxGeometry x="1370" y="200" width="50" height="50" as="geometry" />
        </mxCell>
        <mxCell id="w1lFqmkW3NNwkeodb7ew-107" value="" style="whiteSpace=wrap;html=1;aspect=fixed;" parent="1" vertex="1">
          <mxGeometry x="1420" y="200" width="50" height="50" as="geometry" />
        </mxCell>
        <mxCell id="w1lFqmkW3NNwkeodb7ew-108" value="" style="whiteSpace=wrap;html=1;aspect=fixed;" parent="1" vertex="1">
          <mxGeometry x="1320" y="410" width="50" height="50" as="geometry" />
        </mxCell>
        <mxCell id="w1lFqmkW3NNwkeodb7ew-109" value="" style="whiteSpace=wrap;html=1;aspect=fixed;" parent="1" vertex="1">
          <mxGeometry x="1370" y="410" width="50" height="50" as="geometry" />
        </mxCell>
        <mxCell id="w1lFqmkW3NNwkeodb7ew-110" value="" style="whiteSpace=wrap;html=1;aspect=fixed;" parent="1" vertex="1">
          <mxGeometry x="1420" y="410" width="50" height="50" as="geometry" />
        </mxCell>
        <mxCell id="w1lFqmkW3NNwkeodb7ew-111" value="" style="whiteSpace=wrap;html=1;aspect=fixed;" parent="1" vertex="1">
          <mxGeometry x="1320" y="646" width="50" height="50" as="geometry" />
        </mxCell>
        <mxCell id="w1lFqmkW3NNwkeodb7ew-112" value="" style="whiteSpace=wrap;html=1;aspect=fixed;" parent="1" vertex="1">
          <mxGeometry x="1370" y="646" width="50" height="50" as="geometry" />
        </mxCell>
        <mxCell id="w1lFqmkW3NNwkeodb7ew-113" value="" style="whiteSpace=wrap;html=1;aspect=fixed;" parent="1" vertex="1">
          <mxGeometry x="1420" y="646" width="50" height="50" as="geometry" />
        </mxCell>
        <mxCell id="w1lFqmkW3NNwkeodb7ew-114" value="epilogue" style="text;html=1;align=center;verticalAlign=middle;resizable=0;points=[];autosize=1;strokeColor=none;fillColor=none;" parent="1" vertex="1">
          <mxGeometry x="1510" y="510" width="70" height="30" as="geometry" />
        </mxCell>
        <mxCell id="w1lFqmkW3NNwkeodb7ew-115" value="epilogue" style="text;html=1;align=center;verticalAlign=middle;resizable=0;points=[];autosize=1;strokeColor=none;fillColor=none;" parent="1" vertex="1">
          <mxGeometry x="1510" y="740" width="70" height="30" as="geometry" />
        </mxCell>
        <mxCell id="w1lFqmkW3NNwkeodb7ew-116" value="&lt;b&gt;再分配32个字节;p3=malloc(32)&lt;/b&gt;" style="text;html=1;align=center;verticalAlign=middle;resizable=0;points=[];autosize=1;strokeColor=none;fillColor=none;" parent="1" vertex="1">
          <mxGeometry x="10" y="821" width="190" height="30" as="geometry" />
        </mxCell>
        <mxCell id="w1lFqmkW3NNwkeodb7ew-117" value="unused" style="whiteSpace=wrap;html=1;aspect=fixed;fillColor=#094E82;strokeColor=#001DBC;fontColor=#ffffff;" parent="1" vertex="1">
          <mxGeometry x="15" y="866" width="50" height="50" as="geometry" />
        </mxCell>
        <mxCell id="w1lFqmkW3NNwkeodb7ew-118" value="header" style="whiteSpace=wrap;html=1;aspect=fixed;fillColor=#cce5ff;strokeColor=#36393d;" parent="1" vertex="1">
          <mxGeometry x="65" y="866" width="50" height="50" as="geometry" />
        </mxCell>
        <mxCell id="w1lFqmkW3NNwkeodb7ew-119" value="sfblock&lt;div&gt;*pre&lt;/div&gt;" style="whiteSpace=wrap;html=1;aspect=fixed;fillColor=#cce5ff;strokeColor=#36393d;" parent="1" vertex="1">
          <mxGeometry x="115" y="866" width="50" height="50" as="geometry" />
        </mxCell>
        <mxCell id="w1lFqmkW3NNwkeodb7ew-120" value="sfblock&lt;div&gt;*next&lt;/div&gt;" style="whiteSpace=wrap;html=1;aspect=fixed;fillColor=#cce5ff;strokeColor=#36393d;" parent="1" vertex="1">
          <mxGeometry x="165" y="866" width="50" height="50" as="geometry" />
        </mxCell>
        <mxCell id="w1lFqmkW3NNwkeodb7ew-121" value="footer" style="whiteSpace=wrap;html=1;aspect=fixed;fillColor=#cce5ff;strokeColor=#36393d;" parent="1" vertex="1">
          <mxGeometry x="215" y="866" width="50" height="50" as="geometry" />
        </mxCell>
        <mxCell id="w1lFqmkW3NNwkeodb7ew-122" value="header" style="whiteSpace=wrap;html=1;aspect=fixed;fillColor=#cdeb8b;strokeColor=#36393d;" parent="1" vertex="1">
          <mxGeometry x="265" y="866" width="50" height="50" as="geometry" />
        </mxCell>
        <mxCell id="w1lFqmkW3NNwkeodb7ew-123" value="" style="whiteSpace=wrap;html=1;aspect=fixed;fillColor=#cdeb8b;strokeColor=#36393d;" parent="1" vertex="1">
          <mxGeometry x="315" y="866" width="50" height="50" as="geometry" />
        </mxCell>
        <mxCell id="w1lFqmkW3NNwkeodb7ew-124" value="" style="whiteSpace=wrap;html=1;aspect=fixed;fillColor=#cdeb8b;strokeColor=#36393d;" parent="1" vertex="1">
          <mxGeometry x="365" y="866" width="50" height="50" as="geometry" />
        </mxCell>
        <mxCell id="w1lFqmkW3NNwkeodb7ew-125" value="" style="whiteSpace=wrap;html=1;aspect=fixed;fillColor=#cdeb8b;strokeColor=#36393d;" parent="1" vertex="1">
          <mxGeometry x="415" y="866" width="50" height="50" as="geometry" />
        </mxCell>
        <mxCell id="w1lFqmkW3NNwkeodb7ew-126" value="" style="whiteSpace=wrap;html=1;aspect=fixed;fillColor=#cdeb8b;strokeColor=#36393d;" parent="1" vertex="1">
          <mxGeometry x="465" y="866" width="50" height="50" as="geometry" />
        </mxCell>
        <mxCell id="w1lFqmkW3NNwkeodb7ew-127" value="footer" style="whiteSpace=wrap;html=1;aspect=fixed;fillColor=#cdeb8b;strokeColor=#36393d;" parent="1" vertex="1">
          <mxGeometry x="515" y="866" width="50" height="50" as="geometry" />
        </mxCell>
        <mxCell id="w1lFqmkW3NNwkeodb7ew-128" value="header" style="whiteSpace=wrap;html=1;aspect=fixed;fillColor=#ffff88;strokeColor=#36393d;" parent="1" vertex="1">
          <mxGeometry x="565" y="866" width="50" height="50" as="geometry" />
        </mxCell>
        <mxCell id="w1lFqmkW3NNwkeodb7ew-129" value="" style="whiteSpace=wrap;html=1;aspect=fixed;fillColor=#ffff88;strokeColor=#36393d;" parent="1" vertex="1">
          <mxGeometry x="615" y="866" width="50" height="50" as="geometry" />
        </mxCell>
        <mxCell id="w1lFqmkW3NNwkeodb7ew-130" value="" style="whiteSpace=wrap;html=1;aspect=fixed;fillColor=#ffff88;strokeColor=#36393d;" parent="1" vertex="1">
          <mxGeometry x="665" y="866" width="50" height="50" as="geometry" />
        </mxCell>
        <mxCell id="w1lFqmkW3NNwkeodb7ew-131" value="" style="whiteSpace=wrap;html=1;aspect=fixed;fillColor=#ffff88;strokeColor=#36393d;" parent="1" vertex="1">
          <mxGeometry x="715" y="866" width="50" height="50" as="geometry" />
        </mxCell>
        <mxCell id="w1lFqmkW3NNwkeodb7ew-132" value="" style="whiteSpace=wrap;html=1;aspect=fixed;fillColor=#ffff88;strokeColor=#36393d;" parent="1" vertex="1">
          <mxGeometry x="765" y="866" width="50" height="50" as="geometry" />
        </mxCell>
        <mxCell id="w1lFqmkW3NNwkeodb7ew-133" value="" style="whiteSpace=wrap;html=1;aspect=fixed;fillColor=#ffff88;strokeColor=#36393d;" parent="1" vertex="1">
          <mxGeometry x="815" y="866" width="50" height="50" as="geometry" />
        </mxCell>
        <mxCell id="w1lFqmkW3NNwkeodb7ew-134" value="" style="whiteSpace=wrap;html=1;aspect=fixed;fillColor=#ffff88;strokeColor=#36393d;" parent="1" vertex="1">
          <mxGeometry x="865" y="866" width="50" height="50" as="geometry" />
        </mxCell>
        <mxCell id="w1lFqmkW3NNwkeodb7ew-135" value="footer" style="whiteSpace=wrap;html=1;aspect=fixed;fillColor=#ffff88;strokeColor=#36393d;" parent="1" vertex="1">
          <mxGeometry x="915" y="866" width="50" height="50" as="geometry" />
        </mxCell>
        <mxCell id="w1lFqmkW3NNwkeodb7ew-136" value="header" style="whiteSpace=wrap;html=1;aspect=fixed;fillColor=#ffcc99;strokeColor=#36393d;" parent="1" vertex="1">
          <mxGeometry x="965" y="866" width="50" height="50" as="geometry" />
        </mxCell>
        <mxCell id="w1lFqmkW3NNwkeodb7ew-137" value="" style="strokeWidth=2;html=1;shape=mxgraph.flowchart.annotation_2;align=left;labelPosition=right;pointerEvents=1;rotation=-90;" parent="1" vertex="1">
          <mxGeometry x="140" y="851" width="50" height="190" as="geometry" />
        </mxCell>
        <mxCell id="w1lFqmkW3NNwkeodb7ew-138" value="" style="whiteSpace=wrap;html=1;aspect=fixed;fillColor=#ffcc99;strokeColor=#36393d;" parent="1" vertex="1">
          <mxGeometry x="1015" y="866" width="50" height="50" as="geometry" />
        </mxCell>
        <mxCell id="w1lFqmkW3NNwkeodb7ew-139" value="" style="whiteSpace=wrap;html=1;aspect=fixed;fillColor=#ffcc99;strokeColor=#36393d;" parent="1" vertex="1">
          <mxGeometry x="1065" y="866" width="50" height="50" as="geometry" />
        </mxCell>
        <mxCell id="w1lFqmkW3NNwkeodb7ew-140" value="" style="whiteSpace=wrap;html=1;aspect=fixed;fillColor=#ffcc99;strokeColor=#36393d;" parent="1" vertex="1">
          <mxGeometry x="1115" y="866" width="50" height="50" as="geometry" />
        </mxCell>
        <mxCell id="w1lFqmkW3NNwkeodb7ew-141" value="" style="whiteSpace=wrap;html=1;aspect=fixed;fillColor=#ffcc99;strokeColor=#36393d;" parent="1" vertex="1">
          <mxGeometry x="1165" y="866" width="50" height="50" as="geometry" />
        </mxCell>
        <mxCell id="w1lFqmkW3NNwkeodb7ew-142" value="footer" style="whiteSpace=wrap;html=1;aspect=fixed;fillColor=#ffcc99;strokeColor=#36393d;" parent="1" vertex="1">
          <mxGeometry x="1215" y="866" width="50" height="50" as="geometry" />
        </mxCell>
        <mxCell id="w1lFqmkW3NNwkeodb7ew-143" value="header" style="whiteSpace=wrap;html=1;aspect=fixed;" parent="1" vertex="1">
          <mxGeometry x="1265" y="866" width="50" height="50" as="geometry" />
        </mxCell>
        <mxCell id="w1lFqmkW3NNwkeodb7ew-144" value="footer" style="whiteSpace=wrap;html=1;aspect=fixed;" parent="1" vertex="1">
          <mxGeometry x="1465" y="866" width="50" height="50" as="geometry" />
        </mxCell>
        <mxCell id="w1lFqmkW3NNwkeodb7ew-145" value="header" style="whiteSpace=wrap;html=1;aspect=fixed;" parent="1" vertex="1">
          <mxGeometry x="1515" y="866" width="50" height="50" as="geometry" />
        </mxCell>
        <mxCell id="w1lFqmkW3NNwkeodb7ew-146" value="" style="shape=flexArrow;endArrow=classic;html=1;rounded=0;exitX=0.461;exitY=-0.141;exitDx=0;exitDy=0;exitPerimeter=0;" parent="1" edge="1">
          <mxGeometry width="50" height="50" relative="1" as="geometry">
            <mxPoint x="1537" y="962" as="sourcePoint" />
            <mxPoint x="1535" y="926" as="targetPoint" />
          </mxGeometry>
        </mxCell>
        <mxCell id="w1lFqmkW3NNwkeodb7ew-147" value="" style="endArrow=none;html=1;rounded=0;exitX=1;exitY=1;exitDx=0;exitDy=0;entryX=1;entryY=0;entryDx=0;entryDy=0;" parent="1" source="w1lFqmkW3NNwkeodb7ew-125" target="w1lFqmkW3NNwkeodb7ew-126" edge="1">
          <mxGeometry width="50" height="50" relative="1" as="geometry">
            <mxPoint x="425" y="922" as="sourcePoint" />
            <mxPoint x="475" y="872" as="targetPoint" />
          </mxGeometry>
        </mxCell>
        <mxCell id="w1lFqmkW3NNwkeodb7ew-148" value="" style="shape=flexArrow;endArrow=classic;html=1;rounded=0;" parent="1" edge="1">
          <mxGeometry width="50" height="50" relative="1" as="geometry">
            <mxPoint x="489.62" y="982" as="sourcePoint" />
            <mxPoint x="489.62" y="921" as="targetPoint" />
          </mxGeometry>
        </mxCell>
        <mxCell id="w1lFqmkW3NNwkeodb7ew-149" value="" style="whiteSpace=wrap;html=1;aspect=fixed;" parent="1" vertex="1">
          <mxGeometry x="1315" y="866" width="50" height="50" as="geometry" />
        </mxCell>
        <mxCell id="w1lFqmkW3NNwkeodb7ew-150" value="" style="whiteSpace=wrap;html=1;aspect=fixed;" parent="1" vertex="1">
          <mxGeometry x="1365" y="866" width="50" height="50" as="geometry" />
        </mxCell>
        <mxCell id="w1lFqmkW3NNwkeodb7ew-151" value="" style="whiteSpace=wrap;html=1;aspect=fixed;" parent="1" vertex="1">
          <mxGeometry x="1415" y="866" width="50" height="50" as="geometry" />
        </mxCell>
        <mxCell id="w1lFqmkW3NNwkeodb7ew-152" value="epilogue" style="text;html=1;align=center;verticalAlign=middle;resizable=0;points=[];autosize=1;strokeColor=none;fillColor=none;" parent="1" vertex="1">
          <mxGeometry x="1505" y="960" width="70" height="30" as="geometry" />
        </mxCell>
        <mxCell id="w1lFqmkW3NNwkeodb7ew-153" value="p1" style="text;html=1;align=center;verticalAlign=middle;resizable=0;points=[];autosize=1;strokeColor=none;fillColor=none;" parent="1" vertex="1">
          <mxGeometry x="299" y="540" width="40" height="30" as="geometry" />
        </mxCell>
        <mxCell id="w1lFqmkW3NNwkeodb7ew-154" value="" style="endArrow=classic;html=1;rounded=0;exitX=0.498;exitY=-0.083;exitDx=0;exitDy=0;exitPerimeter=0;" parent="1" edge="1">
          <mxGeometry width="50" height="50" relative="1" as="geometry">
            <mxPoint x="317.9200000000001" y="537.51" as="sourcePoint" />
            <mxPoint x="318" y="470" as="targetPoint" />
          </mxGeometry>
        </mxCell>
        <mxCell id="w1lFqmkW3NNwkeodb7ew-155" value="" style="endArrow=classic;html=1;rounded=0;exitX=0.498;exitY=-0.083;exitDx=0;exitDy=0;exitPerimeter=0;" parent="1" edge="1">
          <mxGeometry width="50" height="50" relative="1" as="geometry">
            <mxPoint x="619" y="770" as="sourcePoint" />
            <mxPoint x="619" y="702" as="targetPoint" />
          </mxGeometry>
        </mxCell>
        <mxCell id="w1lFqmkW3NNwkeodb7ew-156" value="填充字节" style="text;html=1;align=center;verticalAlign=middle;resizable=0;points=[];autosize=1;strokeColor=none;fillColor=none;" parent="1" vertex="1">
          <mxGeometry x="460" y="760" width="70" height="30" as="geometry" />
        </mxCell>
        <mxCell id="w1lFqmkW3NNwkeodb7ew-158" value="p2" style="text;html=1;align=center;verticalAlign=middle;resizable=0;points=[];autosize=1;strokeColor=none;fillColor=none;" parent="1" vertex="1">
          <mxGeometry x="600" y="763" width="40" height="30" as="geometry" />
        </mxCell>
        <mxCell id="w1lFqmkW3NNwkeodb7ew-159" value="" style="endArrow=classic;html=1;rounded=0;exitX=0.498;exitY=-0.083;exitDx=0;exitDy=0;exitPerimeter=0;" parent="1" edge="1">
          <mxGeometry width="50" height="50" relative="1" as="geometry">
            <mxPoint x="1015" y="988" as="sourcePoint" />
            <mxPoint x="1015" y="920" as="targetPoint" />
          </mxGeometry>
        </mxCell>
        <mxCell id="w1lFqmkW3NNwkeodb7ew-160" value="p3" style="text;html=1;align=center;verticalAlign=middle;resizable=0;points=[];autosize=1;strokeColor=none;fillColor=none;" parent="1" vertex="1">
          <mxGeometry x="996" y="981" width="40" height="30" as="geometry" />
        </mxCell>
        <mxCell id="RFYYv--WxVL6RcJDEcWV-2" value="" style="endArrow=classic;html=1;rounded=0;exitX=0.498;exitY=-0.083;exitDx=0;exitDy=0;exitPerimeter=0;" edge="1" parent="1">
          <mxGeometry width="50" height="50" relative="1" as="geometry">
            <mxPoint x="615" y="988" as="sourcePoint" />
            <mxPoint x="615" y="920" as="targetPoint" />
          </mxGeometry>
        </mxCell>
        <mxCell id="RFYYv--WxVL6RcJDEcWV-3" value="p2" style="text;html=1;align=center;verticalAlign=middle;resizable=0;points=[];autosize=1;strokeColor=none;fillColor=none;" vertex="1" parent="1">
          <mxGeometry x="596" y="981" width="40" height="30" as="geometry" />
        </mxCell>
        <mxCell id="RFYYv--WxVL6RcJDEcWV-4" value="填充字节" style="text;html=1;align=center;verticalAlign=middle;resizable=0;points=[];autosize=1;strokeColor=none;fillColor=none;" vertex="1" parent="1">
          <mxGeometry x="455" y="988" width="70" height="30" as="geometry" />
        </mxCell>
        <mxCell id="RFYYv--WxVL6RcJDEcWV-5" value="p1" style="text;html=1;align=center;verticalAlign=middle;resizable=0;points=[];autosize=1;strokeColor=none;fillColor=none;" vertex="1" parent="1">
          <mxGeometry x="296" y="988" width="40" height="30" as="geometry" />
        </mxCell>
        <mxCell id="RFYYv--WxVL6RcJDEcWV-6" value="" style="endArrow=classic;html=1;rounded=0;exitX=0.498;exitY=-0.083;exitDx=0;exitDy=0;exitPerimeter=0;" edge="1" parent="1">
          <mxGeometry width="50" height="50" relative="1" as="geometry">
            <mxPoint x="314.9200000000001" y="985.51" as="sourcePoint" />
            <mxPoint x="315" y="918" as="targetPoint" />
          </mxGeometry>
        </mxCell>
        <mxCell id="RFYYv--WxVL6RcJDEcWV-7" value="&lt;b&gt;free(p1)&lt;/b&gt;" style="text;html=1;align=center;verticalAlign=middle;resizable=0;points=[];autosize=1;strokeColor=none;fillColor=none;" vertex="1" parent="1">
          <mxGeometry x="5" y="1041" width="70" height="30" as="geometry" />
        </mxCell>
        <mxCell id="RFYYv--WxVL6RcJDEcWV-8" value="unused" style="whiteSpace=wrap;html=1;aspect=fixed;fillColor=#094E82;strokeColor=#001DBC;fontColor=#ffffff;" vertex="1" parent="1">
          <mxGeometry x="15" y="1087" width="50" height="50" as="geometry" />
        </mxCell>
        <mxCell id="RFYYv--WxVL6RcJDEcWV-9" value="header" style="whiteSpace=wrap;html=1;aspect=fixed;fillColor=#cce5ff;strokeColor=#36393d;" vertex="1" parent="1">
          <mxGeometry x="65" y="1087" width="50" height="50" as="geometry" />
        </mxCell>
        <mxCell id="RFYYv--WxVL6RcJDEcWV-10" value="sfblock&lt;div&gt;*pre&lt;/div&gt;" style="whiteSpace=wrap;html=1;aspect=fixed;fillColor=#cce5ff;strokeColor=#36393d;" vertex="1" parent="1">
          <mxGeometry x="115" y="1087" width="50" height="50" as="geometry" />
        </mxCell>
        <mxCell id="RFYYv--WxVL6RcJDEcWV-11" value="sfblock&lt;div&gt;*next&lt;/div&gt;" style="whiteSpace=wrap;html=1;aspect=fixed;fillColor=#cce5ff;strokeColor=#36393d;" vertex="1" parent="1">
          <mxGeometry x="165" y="1087" width="50" height="50" as="geometry" />
        </mxCell>
        <mxCell id="RFYYv--WxVL6RcJDEcWV-12" value="footer" style="whiteSpace=wrap;html=1;aspect=fixed;fillColor=#cce5ff;strokeColor=#36393d;" vertex="1" parent="1">
          <mxGeometry x="215" y="1087" width="50" height="50" as="geometry" />
        </mxCell>
        <mxCell id="RFYYv--WxVL6RcJDEcWV-13" value="header" style="whiteSpace=wrap;html=1;aspect=fixed;" vertex="1" parent="1">
          <mxGeometry x="265" y="1087" width="50" height="50" as="geometry" />
        </mxCell>
        <mxCell id="RFYYv--WxVL6RcJDEcWV-14" value="" style="whiteSpace=wrap;html=1;aspect=fixed;" vertex="1" parent="1">
          <mxGeometry x="315" y="1087" width="50" height="50" as="geometry" />
        </mxCell>
        <mxCell id="RFYYv--WxVL6RcJDEcWV-15" value="" style="whiteSpace=wrap;html=1;aspect=fixed;" vertex="1" parent="1">
          <mxGeometry x="365" y="1087" width="50" height="50" as="geometry" />
        </mxCell>
        <mxCell id="RFYYv--WxVL6RcJDEcWV-16" value="" style="whiteSpace=wrap;html=1;aspect=fixed;" vertex="1" parent="1">
          <mxGeometry x="415" y="1087" width="50" height="50" as="geometry" />
        </mxCell>
        <mxCell id="RFYYv--WxVL6RcJDEcWV-17" value="" style="whiteSpace=wrap;html=1;aspect=fixed;" vertex="1" parent="1">
          <mxGeometry x="465" y="1087" width="50" height="50" as="geometry" />
        </mxCell>
        <mxCell id="RFYYv--WxVL6RcJDEcWV-18" value="footer" style="whiteSpace=wrap;html=1;aspect=fixed;" vertex="1" parent="1">
          <mxGeometry x="515" y="1087" width="50" height="50" as="geometry" />
        </mxCell>
        <mxCell id="RFYYv--WxVL6RcJDEcWV-19" value="header" style="whiteSpace=wrap;html=1;aspect=fixed;fillColor=#ffff88;strokeColor=#36393d;" vertex="1" parent="1">
          <mxGeometry x="565" y="1087" width="50" height="50" as="geometry" />
        </mxCell>
        <mxCell id="RFYYv--WxVL6RcJDEcWV-20" value="" style="whiteSpace=wrap;html=1;aspect=fixed;fillColor=#ffff88;strokeColor=#36393d;" vertex="1" parent="1">
          <mxGeometry x="615" y="1087" width="50" height="50" as="geometry" />
        </mxCell>
        <mxCell id="RFYYv--WxVL6RcJDEcWV-21" value="" style="whiteSpace=wrap;html=1;aspect=fixed;fillColor=#ffff88;strokeColor=#36393d;" vertex="1" parent="1">
          <mxGeometry x="665" y="1087" width="50" height="50" as="geometry" />
        </mxCell>
        <mxCell id="RFYYv--WxVL6RcJDEcWV-22" value="" style="whiteSpace=wrap;html=1;aspect=fixed;fillColor=#ffff88;strokeColor=#36393d;" vertex="1" parent="1">
          <mxGeometry x="715" y="1087" width="50" height="50" as="geometry" />
        </mxCell>
        <mxCell id="RFYYv--WxVL6RcJDEcWV-23" value="" style="whiteSpace=wrap;html=1;aspect=fixed;fillColor=#ffff88;strokeColor=#36393d;" vertex="1" parent="1">
          <mxGeometry x="765" y="1087" width="50" height="50" as="geometry" />
        </mxCell>
        <mxCell id="RFYYv--WxVL6RcJDEcWV-24" value="" style="whiteSpace=wrap;html=1;aspect=fixed;fillColor=#ffff88;strokeColor=#36393d;" vertex="1" parent="1">
          <mxGeometry x="815" y="1087" width="50" height="50" as="geometry" />
        </mxCell>
        <mxCell id="RFYYv--WxVL6RcJDEcWV-25" value="" style="whiteSpace=wrap;html=1;aspect=fixed;fillColor=#ffff88;strokeColor=#36393d;" vertex="1" parent="1">
          <mxGeometry x="865" y="1087" width="50" height="50" as="geometry" />
        </mxCell>
        <mxCell id="RFYYv--WxVL6RcJDEcWV-26" value="footer" style="whiteSpace=wrap;html=1;aspect=fixed;fillColor=#ffff88;strokeColor=#36393d;" vertex="1" parent="1">
          <mxGeometry x="915" y="1087" width="50" height="50" as="geometry" />
        </mxCell>
        <mxCell id="RFYYv--WxVL6RcJDEcWV-27" value="header" style="whiteSpace=wrap;html=1;aspect=fixed;fillColor=#ffcc99;strokeColor=#36393d;" vertex="1" parent="1">
          <mxGeometry x="965" y="1087" width="50" height="50" as="geometry" />
        </mxCell>
        <mxCell id="RFYYv--WxVL6RcJDEcWV-28" value="" style="strokeWidth=2;html=1;shape=mxgraph.flowchart.annotation_2;align=left;labelPosition=right;pointerEvents=1;rotation=-90;" vertex="1" parent="1">
          <mxGeometry x="140" y="1072" width="50" height="190" as="geometry" />
        </mxCell>
        <mxCell id="RFYYv--WxVL6RcJDEcWV-29" value="" style="whiteSpace=wrap;html=1;aspect=fixed;fillColor=#ffcc99;strokeColor=#36393d;" vertex="1" parent="1">
          <mxGeometry x="1015" y="1087" width="50" height="50" as="geometry" />
        </mxCell>
        <mxCell id="RFYYv--WxVL6RcJDEcWV-30" value="" style="whiteSpace=wrap;html=1;aspect=fixed;fillColor=#ffcc99;strokeColor=#36393d;" vertex="1" parent="1">
          <mxGeometry x="1065" y="1087" width="50" height="50" as="geometry" />
        </mxCell>
        <mxCell id="RFYYv--WxVL6RcJDEcWV-31" value="" style="whiteSpace=wrap;html=1;aspect=fixed;fillColor=#ffcc99;strokeColor=#36393d;" vertex="1" parent="1">
          <mxGeometry x="1115" y="1087" width="50" height="50" as="geometry" />
        </mxCell>
        <mxCell id="RFYYv--WxVL6RcJDEcWV-32" value="" style="whiteSpace=wrap;html=1;aspect=fixed;fillColor=#ffcc99;strokeColor=#36393d;" vertex="1" parent="1">
          <mxGeometry x="1165" y="1087" width="50" height="50" as="geometry" />
        </mxCell>
        <mxCell id="RFYYv--WxVL6RcJDEcWV-33" value="footer" style="whiteSpace=wrap;html=1;aspect=fixed;fillColor=#ffcc99;strokeColor=#36393d;" vertex="1" parent="1">
          <mxGeometry x="1215" y="1087" width="50" height="50" as="geometry" />
        </mxCell>
        <mxCell id="RFYYv--WxVL6RcJDEcWV-34" value="header" style="whiteSpace=wrap;html=1;aspect=fixed;" vertex="1" parent="1">
          <mxGeometry x="1265" y="1087" width="50" height="50" as="geometry" />
        </mxCell>
        <mxCell id="RFYYv--WxVL6RcJDEcWV-35" value="footer" style="whiteSpace=wrap;html=1;aspect=fixed;" vertex="1" parent="1">
          <mxGeometry x="1465" y="1087" width="50" height="50" as="geometry" />
        </mxCell>
        <mxCell id="RFYYv--WxVL6RcJDEcWV-36" value="header" style="whiteSpace=wrap;html=1;aspect=fixed;" vertex="1" parent="1">
          <mxGeometry x="1515" y="1087" width="50" height="50" as="geometry" />
        </mxCell>
        <mxCell id="RFYYv--WxVL6RcJDEcWV-37" value="" style="shape=flexArrow;endArrow=classic;html=1;rounded=0;exitX=0.461;exitY=-0.141;exitDx=0;exitDy=0;exitPerimeter=0;" edge="1" parent="1">
          <mxGeometry width="50" height="50" relative="1" as="geometry">
            <mxPoint x="1537" y="1183" as="sourcePoint" />
            <mxPoint x="1535" y="1147" as="targetPoint" />
          </mxGeometry>
        </mxCell>
        <mxCell id="RFYYv--WxVL6RcJDEcWV-40" value="" style="whiteSpace=wrap;html=1;aspect=fixed;" vertex="1" parent="1">
          <mxGeometry x="1315" y="1087" width="50" height="50" as="geometry" />
        </mxCell>
        <mxCell id="RFYYv--WxVL6RcJDEcWV-41" value="" style="whiteSpace=wrap;html=1;aspect=fixed;" vertex="1" parent="1">
          <mxGeometry x="1365" y="1087" width="50" height="50" as="geometry" />
        </mxCell>
        <mxCell id="RFYYv--WxVL6RcJDEcWV-42" value="" style="whiteSpace=wrap;html=1;aspect=fixed;" vertex="1" parent="1">
          <mxGeometry x="1415" y="1087" width="50" height="50" as="geometry" />
        </mxCell>
        <mxCell id="RFYYv--WxVL6RcJDEcWV-43" value="epilogue" style="text;html=1;align=center;verticalAlign=middle;resizable=0;points=[];autosize=1;strokeColor=none;fillColor=none;" vertex="1" parent="1">
          <mxGeometry x="1505" y="1181" width="70" height="30" as="geometry" />
        </mxCell>
        <mxCell id="RFYYv--WxVL6RcJDEcWV-44" value="" style="endArrow=classic;html=1;rounded=0;exitX=0.498;exitY=-0.083;exitDx=0;exitDy=0;exitPerimeter=0;" edge="1" parent="1">
          <mxGeometry width="50" height="50" relative="1" as="geometry">
            <mxPoint x="1015" y="1209" as="sourcePoint" />
            <mxPoint x="1015" y="1141" as="targetPoint" />
          </mxGeometry>
        </mxCell>
        <mxCell id="RFYYv--WxVL6RcJDEcWV-45" value="p3" style="text;html=1;align=center;verticalAlign=middle;resizable=0;points=[];autosize=1;strokeColor=none;fillColor=none;" vertex="1" parent="1">
          <mxGeometry x="996" y="1202" width="40" height="30" as="geometry" />
        </mxCell>
        <mxCell id="RFYYv--WxVL6RcJDEcWV-46" value="" style="endArrow=classic;html=1;rounded=0;exitX=0.498;exitY=-0.083;exitDx=0;exitDy=0;exitPerimeter=0;" edge="1" parent="1">
          <mxGeometry width="50" height="50" relative="1" as="geometry">
            <mxPoint x="615" y="1209" as="sourcePoint" />
            <mxPoint x="615" y="1141" as="targetPoint" />
          </mxGeometry>
        </mxCell>
        <mxCell id="RFYYv--WxVL6RcJDEcWV-47" value="p2" style="text;html=1;align=center;verticalAlign=middle;resizable=0;points=[];autosize=1;strokeColor=none;fillColor=none;" vertex="1" parent="1">
          <mxGeometry x="596" y="1202" width="40" height="30" as="geometry" />
        </mxCell>
        <mxCell id="RFYYv--WxVL6RcJDEcWV-51" value="&lt;b&gt;free(p2)&lt;/b&gt;" style="text;html=1;align=center;verticalAlign=middle;resizable=0;points=[];autosize=1;strokeColor=none;fillColor=none;" vertex="1" parent="1">
          <mxGeometry x="5" y="1280" width="70" height="30" as="geometry" />
        </mxCell>
        <mxCell id="RFYYv--WxVL6RcJDEcWV-52" value="unused" style="whiteSpace=wrap;html=1;aspect=fixed;fillColor=#094E82;strokeColor=#001DBC;fontColor=#ffffff;" vertex="1" parent="1">
          <mxGeometry x="15" y="1326" width="50" height="50" as="geometry" />
        </mxCell>
        <mxCell id="RFYYv--WxVL6RcJDEcWV-53" value="header" style="whiteSpace=wrap;html=1;aspect=fixed;fillColor=#cce5ff;strokeColor=#36393d;" vertex="1" parent="1">
          <mxGeometry x="65" y="1326" width="50" height="50" as="geometry" />
        </mxCell>
        <mxCell id="RFYYv--WxVL6RcJDEcWV-54" value="sfblock&lt;div&gt;*pre&lt;/div&gt;" style="whiteSpace=wrap;html=1;aspect=fixed;fillColor=#cce5ff;strokeColor=#36393d;" vertex="1" parent="1">
          <mxGeometry x="115" y="1326" width="50" height="50" as="geometry" />
        </mxCell>
        <mxCell id="RFYYv--WxVL6RcJDEcWV-55" value="sfblock&lt;div&gt;*next&lt;/div&gt;" style="whiteSpace=wrap;html=1;aspect=fixed;fillColor=#cce5ff;strokeColor=#36393d;" vertex="1" parent="1">
          <mxGeometry x="165" y="1326" width="50" height="50" as="geometry" />
        </mxCell>
        <mxCell id="RFYYv--WxVL6RcJDEcWV-56" value="footer" style="whiteSpace=wrap;html=1;aspect=fixed;fillColor=#cce5ff;strokeColor=#36393d;" vertex="1" parent="1">
          <mxGeometry x="215" y="1326" width="50" height="50" as="geometry" />
        </mxCell>
        <mxCell id="RFYYv--WxVL6RcJDEcWV-57" value="header" style="whiteSpace=wrap;html=1;aspect=fixed;" vertex="1" parent="1">
          <mxGeometry x="265" y="1326" width="50" height="50" as="geometry" />
        </mxCell>
        <mxCell id="RFYYv--WxVL6RcJDEcWV-58" value="" style="whiteSpace=wrap;html=1;aspect=fixed;" vertex="1" parent="1">
          <mxGeometry x="315" y="1326" width="50" height="50" as="geometry" />
        </mxCell>
        <mxCell id="RFYYv--WxVL6RcJDEcWV-59" value="" style="whiteSpace=wrap;html=1;aspect=fixed;" vertex="1" parent="1">
          <mxGeometry x="365" y="1326" width="50" height="50" as="geometry" />
        </mxCell>
        <mxCell id="RFYYv--WxVL6RcJDEcWV-60" value="" style="whiteSpace=wrap;html=1;aspect=fixed;" vertex="1" parent="1">
          <mxGeometry x="415" y="1326" width="50" height="50" as="geometry" />
        </mxCell>
        <mxCell id="RFYYv--WxVL6RcJDEcWV-61" value="" style="whiteSpace=wrap;html=1;aspect=fixed;" vertex="1" parent="1">
          <mxGeometry x="465" y="1326" width="50" height="50" as="geometry" />
        </mxCell>
        <mxCell id="RFYYv--WxVL6RcJDEcWV-62" value="" style="whiteSpace=wrap;html=1;aspect=fixed;" vertex="1" parent="1">
          <mxGeometry x="515" y="1326" width="50" height="50" as="geometry" />
        </mxCell>
        <mxCell id="RFYYv--WxVL6RcJDEcWV-63" value="" style="whiteSpace=wrap;html=1;aspect=fixed;" vertex="1" parent="1">
          <mxGeometry x="565" y="1326" width="50" height="50" as="geometry" />
        </mxCell>
        <mxCell id="RFYYv--WxVL6RcJDEcWV-64" value="" style="whiteSpace=wrap;html=1;aspect=fixed;" vertex="1" parent="1">
          <mxGeometry x="615" y="1326" width="50" height="50" as="geometry" />
        </mxCell>
        <mxCell id="RFYYv--WxVL6RcJDEcWV-65" value="" style="whiteSpace=wrap;html=1;aspect=fixed;" vertex="1" parent="1">
          <mxGeometry x="665" y="1326" width="50" height="50" as="geometry" />
        </mxCell>
        <mxCell id="RFYYv--WxVL6RcJDEcWV-66" value="" style="whiteSpace=wrap;html=1;aspect=fixed;" vertex="1" parent="1">
          <mxGeometry x="715" y="1326" width="50" height="50" as="geometry" />
        </mxCell>
        <mxCell id="RFYYv--WxVL6RcJDEcWV-67" value="" style="whiteSpace=wrap;html=1;aspect=fixed;" vertex="1" parent="1">
          <mxGeometry x="765" y="1326" width="50" height="50" as="geometry" />
        </mxCell>
        <mxCell id="RFYYv--WxVL6RcJDEcWV-68" value="" style="whiteSpace=wrap;html=1;aspect=fixed;" vertex="1" parent="1">
          <mxGeometry x="815" y="1326" width="50" height="50" as="geometry" />
        </mxCell>
        <mxCell id="RFYYv--WxVL6RcJDEcWV-69" value="" style="whiteSpace=wrap;html=1;aspect=fixed;" vertex="1" parent="1">
          <mxGeometry x="865" y="1326" width="50" height="50" as="geometry" />
        </mxCell>
        <mxCell id="RFYYv--WxVL6RcJDEcWV-70" value="footer" style="whiteSpace=wrap;html=1;aspect=fixed;" vertex="1" parent="1">
          <mxGeometry x="915" y="1326" width="50" height="50" as="geometry" />
        </mxCell>
        <mxCell id="RFYYv--WxVL6RcJDEcWV-71" value="header" style="whiteSpace=wrap;html=1;aspect=fixed;fillColor=#ffcc99;strokeColor=#36393d;" vertex="1" parent="1">
          <mxGeometry x="965" y="1326" width="50" height="50" as="geometry" />
        </mxCell>
        <mxCell id="RFYYv--WxVL6RcJDEcWV-72" value="" style="strokeWidth=2;html=1;shape=mxgraph.flowchart.annotation_2;align=left;labelPosition=right;pointerEvents=1;rotation=-90;" vertex="1" parent="1">
          <mxGeometry x="140" y="1311" width="50" height="190" as="geometry" />
        </mxCell>
        <mxCell id="RFYYv--WxVL6RcJDEcWV-73" value="" style="whiteSpace=wrap;html=1;aspect=fixed;fillColor=#ffcc99;strokeColor=#36393d;" vertex="1" parent="1">
          <mxGeometry x="1015" y="1326" width="50" height="50" as="geometry" />
        </mxCell>
        <mxCell id="RFYYv--WxVL6RcJDEcWV-74" value="" style="whiteSpace=wrap;html=1;aspect=fixed;fillColor=#ffcc99;strokeColor=#36393d;" vertex="1" parent="1">
          <mxGeometry x="1065" y="1326" width="50" height="50" as="geometry" />
        </mxCell>
        <mxCell id="RFYYv--WxVL6RcJDEcWV-75" value="" style="whiteSpace=wrap;html=1;aspect=fixed;fillColor=#ffcc99;strokeColor=#36393d;" vertex="1" parent="1">
          <mxGeometry x="1115" y="1326" width="50" height="50" as="geometry" />
        </mxCell>
        <mxCell id="RFYYv--WxVL6RcJDEcWV-76" value="" style="whiteSpace=wrap;html=1;aspect=fixed;fillColor=#ffcc99;strokeColor=#36393d;" vertex="1" parent="1">
          <mxGeometry x="1165" y="1326" width="50" height="50" as="geometry" />
        </mxCell>
        <mxCell id="RFYYv--WxVL6RcJDEcWV-77" value="footer" style="whiteSpace=wrap;html=1;aspect=fixed;fillColor=#ffcc99;strokeColor=#36393d;" vertex="1" parent="1">
          <mxGeometry x="1215" y="1326" width="50" height="50" as="geometry" />
        </mxCell>
        <mxCell id="RFYYv--WxVL6RcJDEcWV-78" value="header" style="whiteSpace=wrap;html=1;aspect=fixed;" vertex="1" parent="1">
          <mxGeometry x="1265" y="1326" width="50" height="50" as="geometry" />
        </mxCell>
        <mxCell id="RFYYv--WxVL6RcJDEcWV-79" value="footer" style="whiteSpace=wrap;html=1;aspect=fixed;" vertex="1" parent="1">
          <mxGeometry x="1465" y="1326" width="50" height="50" as="geometry" />
        </mxCell>
        <mxCell id="RFYYv--WxVL6RcJDEcWV-80" value="header" style="whiteSpace=wrap;html=1;aspect=fixed;" vertex="1" parent="1">
          <mxGeometry x="1515" y="1326" width="50" height="50" as="geometry" />
        </mxCell>
        <mxCell id="RFYYv--WxVL6RcJDEcWV-81" value="" style="shape=flexArrow;endArrow=classic;html=1;rounded=0;exitX=0.461;exitY=-0.141;exitDx=0;exitDy=0;exitPerimeter=0;" edge="1" parent="1">
          <mxGeometry width="50" height="50" relative="1" as="geometry">
            <mxPoint x="1537" y="1422" as="sourcePoint" />
            <mxPoint x="1535" y="1386" as="targetPoint" />
          </mxGeometry>
        </mxCell>
        <mxCell id="RFYYv--WxVL6RcJDEcWV-82" value="" style="whiteSpace=wrap;html=1;aspect=fixed;" vertex="1" parent="1">
          <mxGeometry x="1315" y="1326" width="50" height="50" as="geometry" />
        </mxCell>
        <mxCell id="RFYYv--WxVL6RcJDEcWV-83" value="" style="whiteSpace=wrap;html=1;aspect=fixed;" vertex="1" parent="1">
          <mxGeometry x="1365" y="1326" width="50" height="50" as="geometry" />
        </mxCell>
        <mxCell id="RFYYv--WxVL6RcJDEcWV-84" value="" style="whiteSpace=wrap;html=1;aspect=fixed;" vertex="1" parent="1">
          <mxGeometry x="1415" y="1326" width="50" height="50" as="geometry" />
        </mxCell>
        <mxCell id="RFYYv--WxVL6RcJDEcWV-85" value="epilogue" style="text;html=1;align=center;verticalAlign=middle;resizable=0;points=[];autosize=1;strokeColor=none;fillColor=none;" vertex="1" parent="1">
          <mxGeometry x="1505" y="1420" width="70" height="30" as="geometry" />
        </mxCell>
        <mxCell id="RFYYv--WxVL6RcJDEcWV-86" value="" style="endArrow=classic;html=1;rounded=0;exitX=0.498;exitY=-0.083;exitDx=0;exitDy=0;exitPerimeter=0;" edge="1" parent="1">
          <mxGeometry width="50" height="50" relative="1" as="geometry">
            <mxPoint x="1015" y="1448" as="sourcePoint" />
            <mxPoint x="1015" y="1380" as="targetPoint" />
          </mxGeometry>
        </mxCell>
        <mxCell id="RFYYv--WxVL6RcJDEcWV-87" value="p3" style="text;html=1;align=center;verticalAlign=middle;resizable=0;points=[];autosize=1;strokeColor=none;fillColor=none;" vertex="1" parent="1">
          <mxGeometry x="996" y="1441" width="40" height="30" as="geometry" />
        </mxCell>
        <mxCell id="RFYYv--WxVL6RcJDEcWV-88" value="" style="endArrow=classic;html=1;rounded=0;exitX=0.498;exitY=-0.083;exitDx=0;exitDy=0;exitPerimeter=0;" edge="1" parent="1">
          <mxGeometry width="50" height="50" relative="1" as="geometry">
            <mxPoint x="615" y="1448" as="sourcePoint" />
            <mxPoint x="615" y="1380" as="targetPoint" />
          </mxGeometry>
        </mxCell>
        <mxCell id="RFYYv--WxVL6RcJDEcWV-89" value="p2" style="text;html=1;align=center;verticalAlign=middle;resizable=0;points=[];autosize=1;strokeColor=none;fillColor=none;" vertex="1" parent="1">
          <mxGeometry x="596" y="1441" width="40" height="30" as="geometry" />
        </mxCell>
        <mxCell id="RFYYv--WxVL6RcJDEcWV-91" value="通过p2指针，然后找到前一个footer,判断是否为空，为空，则合并，还需要判断后一个是否为空" style="text;html=1;align=center;verticalAlign=middle;resizable=0;points=[];autosize=1;strokeColor=none;fillColor=none;" vertex="1" parent="1">
          <mxGeometry x="70" y="1281" width="530" height="30" as="geometry" />
        </mxCell>
      </root>
    </mxGraphModel>
  </diagram>
</mxfile>
